<?xml version="1.0"?>
<svg xmlns="http://www.w3.org/2000/svg" width="512" height="512" viewBox="0 0 128 128"><g><path d="M90.832,61.594a3.25,3.25,0,1,0-3.25-3.25A3.254,3.254,0,0,0,90.832,61.594Zm0-3.5a.25.25,0,0,1,.25.25c0,.275-.5.275-.5,0A.25.25,0,0,1,90.832,58.094Z"/><path fill="#5850EC" d="M116.577,43.663H47.419a24.7,24.7,0,0,1-21.6-12.755,13.047,13.047,0,0,0,8.932-12.337V13.2A1.749,1.749,0,0,0,33,11.445H27.627a13.02,13.02,0,0,0-10.25,5.018A13.025,13.025,0,0,0,7.126,11.445H1.75A1.749,1.749,0,0,0,0,13.2v5.376A13.087,13.087,0,0,0,10.8,31.377L24.3,64.441A55.592,55.592,0,0,0,44.438,89.424,35.16,35.16,0,0,0,36.5,111.565v3.24a1.749,1.749,0,0,0,2.184,1.695l5.8-1.482A34.938,34.938,0,0,0,66.231,98.342a56.011,56.011,0,0,0,9.865.9h7.749A44.185,44.185,0,0,0,128,55.086,11.436,11.436,0,0,0,116.577,43.663ZM43.618,111.627,40,112.552v-.994a31.663,31.663,0,0,1,8.348-21.3l.013-.015c.015-.015.024-.034.038-.049a31.818,31.818,0,0,1,2.708-2.59l9.524-8.068a1.75,1.75,0,0,0-2.262-2.67l-9.523,8.067c-.7.591-1.369,1.224-2.022,1.873A52.123,52.123,0,0,1,27.537,63.119L13.651,29.112a1.749,1.749,0,0,0-1.47-1.082A9.552,9.552,0,0,1,3.5,18.571V14.945H7.126a9.522,9.522,0,0,1,8.656,5.6,1.75,1.75,0,0,0,3.19,0,9.519,9.519,0,0,1,8.655-5.6h3.626v3.626a9.523,9.523,0,0,1-8.215,9.4,1.749,1.749,0,0,0-1.364,2.444A28.2,28.2,0,0,0,47.419,47.163h69.158a7.932,7.932,0,0,1,7.923,7.923,40.8,40.8,0,0,1-.467,6.111h-10.89a31.541,31.541,0,0,0-22.656,9.664,28.027,28.027,0,0,1-20.13,8.586H69a1.749,1.749,0,0,0-1.75,1.75,31.429,31.429,0,0,1-23.632,30.43ZM108.637,87.3H82a1.75,1.75,0,0,0,0,3.5h21.252a40.528,40.528,0,0,1-19.407,4.94H76.1a52.322,52.322,0,0,1-8.24-.666,35.088,35.088,0,0,0,2.849-12.131,31.54,31.54,0,0,0,22.308-9.662,28.027,28.027,0,0,1,20.13-8.586h10.2a40.458,40.458,0,0,1-2.391,7H105.625a1.75,1.75,0,0,0,0,3.5h13.55a40.484,40.484,0,0,1-2.789,4.253c-.012,0-.023,0-.034,0H95.407a1.75,1.75,0,0,0,0,3.5h18.045A40.724,40.724,0,0,1,108.637,87.3Z"/></g></svg>
