<svg id="Capa_1" enable-background="new 0 0 512 512" height="512" viewBox="0 0 512 512" width="512" xmlns="http://www.w3.org/2000/svg"><g><path fill="#5850EC" d="m161.5 205.515c-7.846 0-15.363 6.899-15 15 .364 8.127 6.591 15 15 15 7.846 0 15.363-6.899 15-15-.364-8.127-6.591-15-15-15z"/><path fill="#5850EC" d="m508.445 232.281-11.457-13.524c-13.675-16.144-32.818-25.996-53.903-27.742-4.268-.354-8.508-.349-12.696-.032 5.868-23.847.648-50.084-16.403-70.213l-11.457-13.525c-2.571-3.035-6.243-4.926-10.208-5.254-3.964-.328-7.897.932-10.933 3.504-29.88 25.311-40.589 64.974-30.595 100.412-10.031 5.144-24.237 9.716-44.211 11.575-16.774 1.562-40.72-10.811-66.072-23.903-32.936-17.01-70.267-36.289-110.898-36.656-47.865-.415-89.37 25.316-126.761 78.714-.001.001-.001.002-.002.003-.047.067-.095.132-.142.199 0 0 .003.013.004.015-1.742 2.496-2.71 5.482-2.71 8.58 0 1.413.254 35.005 22.304 68.498 20.123 30.566 62.717 67.002 151.356 67.002 3.327 0 6.632-.064 9.897-.181 8.409 9.874 18.815 18.052 30.489 23.894l9.65 4.83c2.104 1.053 4.404 1.586 6.714 1.586 1.597 0 3.197-.255 4.74-.769 3.775-1.258 6.896-3.964 8.676-7.523l12.745-25.489c1.71-3.412 3.157-6.938 4.353-10.54 55.628-18.677 97.067-52.606 122.428-78.379 7.094-7.207 13.329-14.151 18.71-20.541 13.195 6.317 27.599 9.528 42.053 9.528 22.143 0 44.401-7.528 62.58-22.928 3.035-2.571 4.926-6.243 5.254-10.208s-.933-7.898-3.505-10.933zm-123.091-22.767-.8.678c-5.741-11.061-8.271-23.532-7.217-36.257 1.053-12.724 5.599-24.609 13.08-34.575l.678.8c17.538 20.704 14.962 51.816-5.741 69.354zm19.39 22.891c10.03-8.496 22.769-12.572 35.865-11.493 13.1 1.085 24.992 7.206 33.488 17.235l.666.786c-22.685 11.72-50.358 9.428-70.807-5.861zm-372.152 29.55c13.216 2.039 32.323 5.413 54.255 10.581l9.666 63.892c-20.592-8.747-36.781-21.716-48.401-38.87-8.633-12.745-13.154-25.686-15.52-35.603zm133.591 87.882c-13.594-.347-26.225-1.659-37.892-3.915l-9.858-65.163c3.491.976 26.674 7.512 35.077 9.797 5.372 1.461 8.809 6.701 7.994 12.19-2.382 16.049-.723 32.162 4.679 47.091zm92.837-39.043c17.058 1.281 33.092 1.222 48.208-.195-12.833 8.086-27.09 15.628-42.701 21.879-.789-7.387-2.631-14.673-5.507-21.684zm104.694-46.27c-28.711 14.245-62.86 19.562-104.313 16.209-10.222-.83-19.858 3.662-25.792 12.008-5.917 8.321-6.989 18.868-2.868 28.21 4.188 9.495 5.286 19.841 3.177 29.918-.001.004-.001.008-.002.012-.001.005-.003.01-.004.014-.854 4.12-2.256 8.141-4.168 11.959l-5.982 11.965c-8.333-4.822-15.364-11.235-20.941-19.108-.001-.002-.003-.004-.004-.006-10.046-14.179-14.179-31.423-11.637-48.555 3.043-20.517-9.768-40.095-29.799-45.542-8.267-2.248-37.971-10.624-44.53-12.41-29.53-8.037-55.932-13.083-74.239-16.054l.001-.001c64.115-74.896 125.056-43.421 184.133-12.91 29.365 15.166 57.104 29.484 82.615 27.119 21.074-1.961 39.136-6.708 54.027-14.131 2.038 3.053 4.264 6.024 6.692 8.891 2.275 2.685 4.668 5.21 7.161 7.585-4.014 4.68-8.523 9.665-13.527 14.827z"/></g></svg>