<svg id="Capa_1" enable-background="new 0 0 511.916 511.916" height="512" viewBox="0 0 511.916 511.916" width="512" xmlns="http://www.w3.org/2000/svg"><g><path fill="#5850EC" d="m465.916 265.038h-282c-18.196 0-33-14.804-33-33 0-10.927 6.65-20.89 16.941-25.383.767-.336-1.27.722 26.059-13.754 17.028 33.293 57.657 47.504 91.906 31.587l15.37-7.149c7.507-3.491 10.769-12.418 7.273-19.929l-20.649-44.378c-5.819-12.511-18.507-22.579-37.706-29.922-8.595-3.292-13.139-13.042-10.128-21.741 6.733-19.476 7.197-35.684 1.384-48.166l-20.64-44.38c-3.491-7.508-12.416-10.77-19.926-7.275l-15.375 7.151c-35.009 16.298-50.244 58.046-33.958 93.069l.96 2.062-47.625 22.314c-30.39 14.24-56.266 36.435-74.832 64.185-70.265 105.02-10.433 245.781 111.4 275.428l-11.074 23.994c-4.302 9.32 1.838 20.128 12.049 21.204.976.103 8.16.814 19.066.814 42.561 0 90.083-10.242 119.913-40.732h68.592c89.327 0 162-72.225 162-161 0-24.391-21.066-44.999-46-44.999zm-116 176h-48.406c6.25-14.409 9.406-30.776 9.406-49 0-8.284-6.716-15-15-15s-15 6.716-15 15c0 26.403-7.979 46.439-24.392 61.254-25.347 22.878-65.019 27.737-89.448 28.358 12.887-27.921 25.777-55.85 38.459-83.326 3.471-7.522.188-16.434-7.333-19.905-7.52-3.47-16.433-.188-19.906 7.333l-24.073 52.158c-72.775-14.703-125.438-78.703-124.11-153.064 1.14-55.555 35.454-107.186 87.417-131.534l49.901-23.382c13.677-6.41 19.624-22.771 13.253-36.481l-2.018-4.334c-9.312-20.025-.6-43.898 19.415-53.216l1.769-.822 14.317 30.784c2.315 4.973 1.39 14.342-2.537 25.701-8.319 24.034 3.976 50.46 27.756 59.566 11.176 4.275 18.914 9.581 21.229 14.559l14.321 30.778-1.763.82c-20.033 9.31-43.905.6-53.211-19.397-6.617-14.268-23.889-20.082-37.789-12.716l-26.875 14.235c-20.909 9.383-34.383 29.975-34.383 52.631 0 34.738 28.262 63 63 63h282c8.523 0 16 7.01 16 15 0 6.452-.481 12.795-1.393 19h-64.607c-8.284 0-15 6.716-15 15s6.716 15 15 15h56.411c-19.589 48.028-67.074 82-122.41 82z"/><path d="m368.246 331.568c-11.125-7.337-25.515 2.191-23.04 15.399 1.65 7.958 9.197 13.362 17.64 11.78 13.223-2.767 16.369-19.776 5.4-27.179z"/></g></svg>